<svg viewBox="-235.56338072099794 -65.00885104024677 564.6797779500014 121.51187110326498" xmlns="http://www.w3.org/2000/svg" xmlns:xlink="http://www.w3.org/1999/xlink" version="1.1" class="jsx-2263963463 artboard-inner" style="width: 130px;height: 34.43px;max-height: 100%;margin-top: 6px;"><g transform="translate(-2.8058545635887633 51.61422113601378) scale(1.7860132591955047)" fill="#000000"><g id="line1"><path d="M9.648-23.904C9.648-25.344 9.648-26.784 9.648-28.152C9.720-29.736 9.864-32.976 9.864-35.064C9.720-36.360 9.720-37.800 9.648-38.592C9.648-40.176 9.576-41.760 9.504-43.272C9.504-44.064 9.432-44.856 9.432-45.648C9.360-48.024 9.432-50.328 9.432-52.704C9.432-53.136 9.432-53.496 9.360-53.856C9.360-54.360 9.072-54.720 8.640-54.864C8.280-54.936 7.920-55.008 7.632-55.080C6.696-55.152 5.760-55.224 4.824-55.296C4.176-55.296 3.528-55.224 2.880-55.152C2.448-55.080 2.232-54.792 2.232-54.288C2.160-54.000 2.232-53.640 2.232-53.280C2.232-51.048 2.232-48.888 2.232-46.656C2.232-40.752 2.232-34.776 2.232-28.872C2.232-28.368 2.304-27.864 2.376-27.360C2.376-26.640 2.448-25.920 2.448-25.200C2.520-23.976 2.520-21.528 2.520-21.528C2.520-19.728 2.520-17.856 2.376-16.056C2.232-13.968 1.944-11.880 1.944-9.792C1.872-7.200 2.088-4.608 1.584-2.016C1.584-1.872 1.584-1.800 1.584-1.728C1.512-0.936 1.728-0.648 2.520-0.576C3.240-0.432 3.888-0.360 4.608-0.360C5.904-0.216 7.128-0.504 8.352-0.648C8.928-0.720 9.144-1.008 9.144-1.584C9.216-2.808 9.288-4.032 9.360-5.256C9.360-6.120 9.432-6.912 9.504-7.776C9.648-8.496 9.648-9.288 9.648-10.080C9.576-12.096 9.576-14.112 9.720-16.128C9.864-18.360 10.008-20.520 9.720-22.752C9.648-23.112 9.648-23.544 9.648-23.904ZM23.544-52.416C23.544-52.776 23.544-53.208 23.472-53.568C23.400-54.000 23.184-54.360 22.752-54.432C21.600-54.792 20.376-55.080 19.224-55.008C18.000-54.936 16.848-55.008 15.552-54.864C15.048-54.864 14.472-54.864 13.824-54.864C13.320-54.864 12.744-54.864 12.240-54.720C11.088-54.504 10.656-54.000 10.656-52.920C10.584-51.840 10.512-50.832 10.512-49.824C10.512-47.808 10.944-47.304 13.032-47.160C13.680-47.088 14.256-47.160 14.832-47.016C16.488-46.800 18.144-46.800 19.800-46.944C20.232-46.944 20.664-46.944 21.096-46.944C23.040-47.088 23.256-47.592 23.544-48.888C23.544-49.176 23.544-49.392 23.616-49.680C23.616-50.544 23.616-51.480 23.544-52.416ZM20.520-32.112C18.648-31.896 16.704-31.824 14.832-31.824C13.896-31.824 13.104-31.608 12.168-31.536C11.448-31.464 11.160-31.032 11.088-30.384C10.872-29.088 10.800-27.864 10.656-26.640C10.656-26.424 10.656-26.208 10.728-25.992C10.800-25.200 11.232-24.624 12.024-24.408C12.960-24.120 13.968-23.976 14.904-24.048C15.984-24.192 17.064-24.120 18.144-24.120C18.432-24.120 18.720-24.120 19.008-24.120C19.368-24.120 19.728-24.120 20.088-24.120C20.376-24.120 20.664-24.120 20.952-24.120C21.600-24.264 22.032-24.624 22.176-25.272C22.176-25.560 22.248-25.776 22.248-26.064C22.104-27.720 22.032-29.376 21.888-31.032C21.816-31.968 21.384-32.256 20.520-32.112Z"></path><path d="M35.784-14.544C35.784-15.624 35.856-16.560 35.784-17.712C35.640-19.368 35.640-20.304 35.640-21.600C35.784-24.192 35.568-26.712 35.784-29.304C35.856-30.456 35.856-31.680 35.928-32.904C36.000-36.072 36.216-38.448 36.000-41.688C35.928-42.120 35.928-44.208 35.928-44.568C36.072-45.864 36.000-46.440 35.928-47.880C35.856-49.896 35.928-51.984 35.424-54.072C35.208-55.008 34.920-55.368 33.840-55.440C32.976-55.440 32.112-55.512 31.248-55.512C30.600-55.512 29.952-55.512 29.304-55.440C28.728-55.368 28.296-55.080 28.152-54.504C27.936-53.712 27.720-52.992 27.648-52.200C27.504-50.112 27.576-47.952 27.648-45.864C27.648-44.424 27.864-42.984 27.792-41.544C27.648-39.240 27.720-37.008 27.792-35.064C27.792-33.552 27.864-32.328 27.936-31.176C28.008-29.304 27.864-27.360 27.792-25.488C27.648-23.328 27.504-21.168 27.576-19.008C27.720-15.696 27.864-12.384 27.648-9.072C27.504-7.056 27.720-5.112 27.648-3.024C27.648-2.664 27.648-2.232 27.720-1.872C27.720-1.296 28.008-0.720 28.440-0.432C28.872-0.144 29.304-0.144 30.168-0.144C31.824-0.072 32.760 0.072 34.776-0.288C36.360-0.576 36.360-0.792 36.216-3.312C36.072-7.056 35.928-10.800 35.784-14.544ZM51.552-51.840C50.616-52.920 49.464-53.712 48.168-54.360C46.512-55.296 44.784-55.584 42.912-55.440C41.616-55.440 40.248-55.152 38.952-55.008C37.872-54.864 37.584-54.648 37.440-53.568C37.296-52.632 37.152-51.696 37.224-50.760C37.296-48.816 37.368-46.872 37.368-44.928C37.440-44.064 37.512-43.200 37.440-42.408C37.296-41.112 37.368-39.888 37.440-38.592C37.440-37.584 37.512-36.648 37.512-35.640C37.512-34.704 38.016-34.200 38.808-33.912C39.528-33.624 40.320-33.480 41.112-33.552C44.208-33.624 47.016-34.560 49.320-36.648C50.184-37.512 51.120-38.376 51.696-39.456C52.632-41.256 53.352-43.128 53.568-45.144C53.856-47.664 53.208-49.896 51.552-51.840ZM51.984-5.328C51.048-8.784 49.968-12.240 49.248-15.840C48.888-17.208 48.528-18.576 48.312-19.944C47.664-23.760 46.944-27.504 46.080-31.176C45.864-31.824 45.504-32.256 44.928-32.400C44.568-32.544 44.136-32.616 43.776-32.616C43.056-32.616 42.408-32.688 41.688-32.688C40.896-32.688 40.176-32.688 39.384-32.688C38.448-32.616 37.872-31.896 38.088-31.104C38.736-28.296 39.024-25.488 39.672-22.680C39.960-21.528 40.320-20.376 40.536-19.152C40.824-17.424 41.112-15.696 41.400-13.896C41.904-11.088 42.336-8.352 42.840-5.544C42.984-4.536 43.128-3.456 43.200-2.448C43.416-0.720 43.560-0.504 44.928-0.216C45.864 0 47.016-0.144 47.952-0.144C49.032-0.216 50.400-0.216 51.408-0.576C52.416-0.864 52.632-1.008 52.488-2.160C52.344-3.528 52.272-4.248 51.984-5.328Z"></path><path d="M67.464-4.176C67.248-8.424 67.248-11.232 67.392-15.336C67.392-15.408 67.680-19.584 67.608-21.528C67.536-25.560 67.464-40.824 67.464-43.128C67.464-43.920 67.176-44.424 66.168-44.568C64.656-44.712 63.144-44.784 61.632-44.712C61.344-44.640 61.056-44.640 60.768-44.568C60.336-44.424 59.976-44.208 59.904-43.704C59.832-43.128 59.760-42.624 59.760-42.048C59.688-41.040 59.760-40.032 59.760-38.952C59.688-36.720 59.760-27.432 59.832-25.344C59.832-23.256 59.904-21.240 59.832-19.152C59.760-17.712 59.688-16.272 59.688-14.760C59.544-11.520 59.472-8.208 59.328-4.968C59.256-3.672 59.328-2.232 59.544-1.152C59.616-0.576 59.904-0.216 60.480-0.144C62.496 0.216 64.584 0.216 66.600-0.072C67.176-0.144 67.464-0.504 67.680-1.008C67.824-1.440 67.896-1.944 67.752-2.448C67.680-3.024 67.536-3.600 67.464-4.176ZM66.384-55.152C66.240-55.296 66.096-55.368 65.952-55.368C64.080-56.016 62.280-55.728 60.768-54.432C59.472-53.352 58.968-51.840 59.184-50.184C59.472-48.240 61.560-46.728 63.504-46.728C64.080-46.800 65.376-46.944 65.880-47.232C67.320-47.952 67.824-48.744 68.040-50.256C68.400-52.272 67.608-54.360 66.384-55.152Z"></path><path d="M93.528-10.080C93.168-11.376 92.880-11.808 90.072-11.952C89.424-11.952 88.776-11.952 88.128-11.952C85.896-12.096 83.592-12.096 81.288-11.880C81.288-12.096 81.288-12.240 81.288-12.456C81.288-13.104 81.360-13.752 81.432-14.400C81.504-15.696 81.504-16.992 81.576-18.360C81.576-18.432 81.576-18.576 81.576-18.648C81.648-18.648 81.648-18.648 81.720-18.648C84.384-18.648 87.120-18.576 89.784-18.360C91.080-18.288 91.656-18.576 91.800-19.440C92.016-21.096 92.088-22.680 92.232-24.264C92.232-24.552 92.232-24.768 92.160-25.056C91.944-25.704 91.368-26.064 90.432-26.136C90.000-26.136 89.568-26.136 89.208-26.136C88.704-26.136 88.200-26.136 87.696-26.136C87.264-26.136 86.904-26.136 86.472-26.136C84.888-26.136 83.376-26.136 81.864-26.208C81.792-26.208 81.648-26.208 81.576-26.208C81.576-26.496 81.576-26.784 81.576-27.000C81.504-28.224 81.576-29.376 81.576-30.600C81.576-30.888 81.504-31.248 81.576-31.608C81.936-33.408 81.792-35.280 81.648-37.080C81.432-38.808 81.504-40.464 81.576-42.120C81.576-42.552 81.504-42.984 81.504-43.416C83.376-43.344 85.176-43.344 86.976-43.272C88.776-43.200 90.576-43.488 92.376-43.848C93.024-43.920 93.384-44.280 93.456-44.712C93.600-45.072 93.600-45.432 93.600-45.864C93.672-46.728 93.672-47.592 93.600-48.528C93.600-48.744 93.600-48.960 93.528-49.248C93.168-50.544 92.808-50.976 89.856-51.120C89.136-51.120 88.488-51.120 87.768-51.120C85.248-51.264 82.800-51.264 80.280-51.048C79.344-50.976 78.480-50.976 77.544-50.904C75.600-50.832 74.592-50.616 74.088-50.040C73.584-49.896 73.440-49.680 73.440-49.104C73.440-49.032 73.440-48.960 73.512-48.888C73.584-48.456 73.656-48.096 73.656-47.664C73.728-46.872 73.728-46.152 73.800-45.360C73.800-44.352 73.800-43.416 73.800-42.408C73.872-40.608 74.160-38.880 74.304-37.152C74.376-35.640 74.376-34.128 74.448-32.616C74.448-32.616 74.376-30.528 74.376-29.520C74.376-28.872 74.304-28.296 74.232-27.648C74.232-27.288 74.160-26.856 74.160-26.424C74.160-21.528 74.160-16.560 74.160-11.592C74.160-9.720 74.088-7.920 74.088-6.048C74.088-5.760 74.088-5.472 74.088-5.184C74.160-4.752 74.304-4.608 74.808-4.536C75.456-4.464 76.104-4.392 76.680-4.392C76.896-4.392 77.040-4.392 77.184-4.392C77.184-4.392 77.256-4.392 77.328-4.392C78.048-4.320 78.840-4.320 79.632-4.248C80.496-4.248 81.360-4.248 82.080-4.248C83.952-4.176 85.680-4.176 87.408-4.104C89.064-4.032 90.792-4.320 92.448-4.680C93.024-4.752 93.384-5.112 93.528-5.472C93.600-5.904 93.600-6.264 93.600-6.696C93.672-7.560 93.672-8.424 93.600-9.360C93.600-9.576 93.600-9.792 93.528-10.080Z"></path><path d="M106.416-31.104C107.064-29.088 107.856-27.144 108.288-25.056C109.368-20.232 110.952-15.480 111.672-10.584C111.960-7.920 112.896-5.472 113.040-2.808C113.112-2.016 113.544-1.512 114.264-1.152C114.624-0.936 115.056-0.792 115.488-0.720C117.360-0.360 117.864-0.288 119.736-0.432C119.952-0.432 120.672-0.504 120.888-0.504C121.752-0.576 122.760-0.792 122.976-1.584C123.192-2.232 123.264-7.200 123.120-10.080C123.264-13.968 123.120-17.712 123.120-20.232C123.120-21.312 123.408-29.304 123.408-30.456C123.336-36.720 123.696-40.824 123.624-47.088C123.624-49.320 123.768-51.480 123.984-53.640C124.128-54.648 123.480-55.656 122.112-55.728C120.816-55.872 118.152-55.656 117.360-55.440C115.848-55.224 115.632-54.648 115.560-54.072C115.488-53.640 115.488-53.280 115.488-52.920C115.488-51.120 115.560-49.968 115.488-47.592C115.560-45.504 115.704-44.280 115.776-42.336C115.704-40.896 115.776-36.792 115.776-35.352C115.632-32.400 115.776-31.032 115.704-29.736C115.848-26.208 116.064-21.888 115.416-22.680C115.128-23.616 114.912-24.336 114.696-25.056C114.120-27.288 110.808-40.032 110.448-41.616C109.944-43.848 109.296-46.008 108.648-48.240C108-50.328 107.712-55.152 106.344-55.584C105.984-55.656 105.624-55.728 105.336-55.728C103.752-55.728 102.168-55.656 100.584-55.656C99.864-55.656 99.144-55.368 98.496-55.152C98.064-54.936 97.848-54.720 97.776-54.288C97.704-53.424 97.560-52.560 97.560-51.696C97.560-50.400 97.560-49.032 97.560-47.664C97.632-46.080 97.632-44.424 97.704-42.840C97.776-41.616 97.776-40.392 97.704-39.096C97.704-37.440 97.992-27.000 98.136-24.696C98.352-19.224 97.992-9.648 97.920-8.064C97.920-7.776 97.704-2.232 97.776-1.944C97.776-1.512 97.992-1.224 98.352-1.008C98.640-0.864 99-0.720 99.288-0.576C101.160-0.072 102.672 0 104.976-0.216C105.552-0.360 105.912-0.648 106.128-1.152C106.416-2.016 106.632-2.880 106.632-3.816C106.632-4.824 106.632-5.832 106.560-6.840C106.560-7.920 106.416-17.208 106.344-18.936C106.272-20.808 106.344-22.680 106.200-24.552C106.128-26.712 105.696-31.680 106.416-31.104Z"></path><path d="M128.088-22.752C128.088-21.024 127.800-13.320 128.016-8.424C128.016-8.208 127.944-4.752 128.664-4.248C128.592-3.816 130.464-4.032 132.768-4.176C135.432-4.608 138.168-6.480 140.184-7.704C142.200-9.360 142.776-9.936 144.720-12.528C145.872-14.400 146.808-16.200 147.240-17.640C147.600-18.792 147.960-19.944 148.176-21.096C148.608-23.256 148.968-25.488 148.824-27.720C148.752-28.800 148.176-35.208 147.528-37.224C146.664-39.888 146.016-41.184 144.360-43.200C143.208-44.712 141.912-46.512 139.320-48.024C136.872-49.320 135.432-49.896 135.000-50.040C133.488-50.688 130.248-50.904 129.528-50.904C129.240-50.832 129.024-50.688 128.880-50.472C128.808-50.184 128.808-49.968 128.736-49.680C128.664-48.816 128.592-47.880 128.520-47.016C128.448-46.296 128.232-37.080 128.088-36.144C127.944-35.424 128.016-25.560 128.088-22.752Z"></path><path d=""></path><path d="M184.752-54.216C184.680-54.288 184.608-54.432 184.536-54.504C184.176-55.224 183.240-55.872 180.864-55.080C177.768-54.216 176.688-53.208 174.096-50.904L173.160-50.040C171.360-48.528 169.560-46.008 167.832-42.408C167.040-40.752 166.392-38.952 165.816-36.576C165.384-34.776 165.096-33.048 165.024-31.392C165.024-30.888 164.952-30.456 164.952-29.952C164.880-28.512 164.736-27.000 164.808-25.488C164.808-25.344 164.808-25.128 164.808-24.912C164.880-23.544 164.880-21.600 165.384-19.296C165.960-15.408 167.760-9.864 172.872-4.968C175.680-2.232 178.488-0.432 180.864 0.144C181.224 0.216 181.512 0.216 181.800 0.216C183.096 0.216 184.176-0.504 184.752-1.872C185.400-3.384 185.544-4.896 185.544-6.264C185.544-7.200 185.400-7.416 184.392-7.776L184.104-7.848C183.096-8.136 182.160-8.424 180.360-9.576C177.624-11.088 176.472-12.888 175.032-15.984C174.528-16.920 173.088-21.312 172.800-22.968C172.800-23.184 172.800-23.400 172.728-23.616C172.728-23.904 172.728-24.192 172.656-24.408C172.224-27.288 172.440-30.312 173.376-33.696C173.664-34.560 173.952-35.496 174.312-36.432C176.112-40.824 178.128-43.704 180.864-45.648C181.368-46.008 181.656-46.224 181.872-46.368C182.232-46.656 182.448-46.872 183.168-47.232C185.184-48.312 185.256-48.384 185.760-49.608L185.760-49.680C186.120-52.128 185.256-53.496 184.752-54.216Z"></path></g></g><g transform="translate(-248.11927281962232 -118.834868873454) scale(2.291639329954103)" id="logomark"><g fill="#000000"><path d="M88.79 48.368l-2.389-3.379v-.671l2.182-3.124 5.938-5.922-10.589 3.185-1.851 3.664H13.937L8.778 43.49l-3.299 6.598 1.154 8.522 4.838 7.698 7.643 3.031 25.209-.342 3.354 4.404 7.508 3.111-.071-10.279 26.973-19.35 1.704 3.805 9.511 3.346-4.512-5.666zM44.167 35.135l-1.063-.201.518-2.74 1.063.201-.518 2.74zm-16.951-1.84l-.063-2.789 1.081-.024.063 2.788-1.081.025zm15.847-3.592l-.17-.726-1.101-1.443.861-.655 1.238 1.626.225.949-1.053.249zm-14.069-.695l-.997-.418.564-1.349 1.133-1.067.741.788-.965.91-.476 1.136zm10.941-3.151l-1.837-1.005-.464-.039.089-1.078.693.058 2.038 1.116-.519.948zm-7.496-.419l-.357-1.021 2.653-.929.208.018-.062.747.103.294-2.545.891z"></path><path d="M11.27 35.155l-.519-2.74 1.063-.201.518 2.741-1.062.2zm17.027-1.884l-1.105.019.011-2.788 1.032-.019-.013 2.79.075-.002zm-15.925-3.549l-1.053-.248.225-.95 1.238-1.626.86.655-1.099 1.443-.171.726zm14.069-.694l-.476-1.137-.965-.91.741-.787 1.133 1.067.564 1.35-.997.417zm-10.939-3.151l-.519-.949 2.037-1.116.692-.057.089 1.078-.463.038-1.836 1.006zm7.495-.419l-2.545-.891.104-.294-.063-.748.208-.017 2.653.929-.357 1.021zM30.352 31.926l-1.345 1.178.713.814 1.172-1.026.957-.297-.321-1.033zM34.472 31.332l-.127 1.074.806.096 1.501.894.553-.93-1.697-1.011zM39.183 34.382l-.194-.227-.722.62-.087.026.011.039-.023.02.045.052.625 2.095-.01.074.032.004.01.032.073-.021.957.124.039-.302zM17.149 34.807l-.086-.027-.719-.624-.196.225-.771 2.532.037.301.958-.117.073.021.01-.032.032-.004-.008-.074.637-2.092.045-.051-.023-.02zM19.815 31.455l-1.697 1.011.553.93 1.501-.894.807-.096-.127-1.074zM26.998 35.357l-.004.342.031 2.301.637-.008.637.008.03-2.301v-.342zM26.998 39.381l-.004.343.031 1.681.637-.008.637.008.03-1.681v-.343zM23.796 31.562l-.32 1.033.957.297 1.171 1.026.712-.814-1.344-1.178z"></path></g></g></svg>